<svg xmlns="http://www.w3.org/2000/svg" xmlns:xlink="http://www.w3.org/1999/xlink" version="1.1" id="Layer_1" x="0px" y="0px" viewBox="0 0 512 512" style="enable-background:new 0 0 512 512;" xml:space="preserve" width="512" height="512" class=""><g><polygon style="fill:#FFFFFF;" points="499.553,414.96 12.448,414.96 115.061,209.863 396.94,209.863 " data-original="#FFFFFF" class=""></polygon><path style="fill:#F7CE3E" d="M327.784,168.824c0,39.645-71.784,143.568-71.784,143.568s-71.784-103.922-71.784-143.568  S216.355,97.04,256,97.04S327.784,129.179,327.784,168.824z" data-original="#F66232" class="active-path" data-old_color="#F66232"></path><circle style="fill:#FFFFFF;" cx="256.002" cy="168.825" r="35.892" data-original="#FFFFFF" class=""></circle><path d="M401.694,202.172h-65.437v15.382h55.933l20.593,41.162h-39.359c-19.508,0-35.379,15.871-35.379,35.379v39.68  c0,11.026-8.97,19.997-19.997,19.997h-57.541v15.382h57.541c19.508,0,35.379-15.871,35.379-35.379v-39.68  c0-11.026,8.971-19.997,19.997-19.997h47.054l66.627,133.17H24.896l94.914-189.714h55.934v-15.382h-65.437L0,422.651h512  L401.694,202.172z" data-original="#000000" class="" style="fill:#000000"></path><path d="M249.672,316.763l6.328,9.162l6.328-9.162c0.182-0.263,18.325-26.588,36.216-57.429  c24.505-42.243,36.931-72.695,36.931-90.51c0-43.822-35.653-79.475-79.475-79.475s-79.475,35.653-79.475,79.475  c0,17.815,12.425,48.266,36.931,90.51C231.347,290.176,249.491,316.501,249.672,316.763z M256,104.732  c35.34,0,64.093,28.751,64.093,64.093c0,27.652-41.672,96.089-64.094,129.839c-22.422-33.746-64.092-102.175-64.092-129.839  C191.908,133.483,220.659,104.732,256,104.732z" data-original="#000000" class="" style="fill:#000000"></path><path d="M299.584,168.824c0-24.032-19.551-43.583-43.583-43.583c-24.032,0-43.583,19.551-43.583,43.583s19.551,43.583,43.583,43.583  C280.033,212.407,299.584,192.856,299.584,168.824z M227.8,168.824c0-15.549,12.65-28.201,28.201-28.201  c15.55,0,28.201,12.651,28.201,28.201s-12.65,28.201-28.201,28.201C240.45,197.025,227.8,184.374,227.8,168.824z" data-original="#000000" class="" style="fill:#000000"></path><path d="M179.089,333.776c0-19.508-15.871-35.379-35.379-35.379H87.441v15.382h56.269c11.026,0,19.997,8.971,19.997,19.997  c0,19.508,15.871,35.379,35.379,35.379h10.768v-15.382h-10.768C188.059,353.773,179.089,344.801,179.089,333.776z" data-original="#000000" class="" style="fill:#000000"></path><rect x="227.134" y="353.771" width="15.171" height="15.382" data-original="#000000" class="" style="fill:#000000"></rect></g> </svg>