<svg xmlns="http://www.w3.org/2000/svg" xmlns:xlink="http://www.w3.org/1999/xlink" version="1.1" id="Layer_1" x="0px" y="0px" viewBox="0 0 512 512" style="enable-background:new 0 0 512 512;" xml:space="preserve" width="512" height="512" class=""><g><rect x="7.837" y="74.585" style="fill:#FFFFFF;" width="444.082" height="310.335" data-original="#FFFFFF" class=""></rect><polyline style="fill:#F7CE3E" points="451.918,74.712 229.878,229.357 7.837,74.712 " data-original="#00D7DF" class="active-path" data-old_color="#1A2930"></polyline><circle style="fill:#1A2930" cx="451.918" cy="385.171" r="52.245" data-original="#F66232" class="" data-old_color="#F66232"></circle><path d="M459.755,325.621V66.743H179.14v15.673h248.061L230.198,220.03L32.613,82.418h59.802V66.744H0v326.008h334.347v-15.673  H32.741L444.082,89.745v235.876c-29.437,3.855-52.245,29.082-52.245,59.554c0,33.13,26.952,60.082,60.082,60.082  S512,418.305,512,385.175C512,354.703,489.192,329.476,459.755,325.621z M216.507,229.594L15.673,369.882V89.72L216.507,229.594z   M451.918,429.584c-24.487,0-44.408-19.921-44.408-44.408s19.921-44.408,44.408-44.408c24.487,0,44.408,19.921,44.408,44.408  C496.327,409.662,476.406,429.584,451.918,429.584z" data-original="#000000" class="" style="fill:#000000"></path><rect x="352.632" y="377.073" width="15.673" height="15.673" data-original="#000000" class="" style="fill:#000000"></rect><rect x="110.696" y="66.743" width="15.673" height="15.673" data-original="#000000" class="" style="fill:#000000"></rect><rect x="145.178" y="66.743" width="15.673" height="15.673" data-original="#000000" class="" style="fill:#000000"></rect></g> </svg>