<?xml version="1.0"?>
<svg xmlns="http://www.w3.org/2000/svg" xmlns:xlink="http://www.w3.org/1999/xlink" version="1.1" id="Layer_1" x="0px" y="0px" viewBox="0 0 480 480" style="enable-background:new 0 0 480 480;" xml:space="preserve" width="512px" height="512px" class=""><g><rect x="16" y="24" style="fill:#1A2930" width="24" height="16" data-original="#E07940" class="active-path" data-old_color="#1a2930"/><path style="fill:#F7CE3E" d="M56,48h8h40v16H72v204.144L240,413.24l168-145.096V64h-32V48h40h8V16H56V48z M216,327.808h-16v-16h16  V327.808z M248,359.808h-16v-16h16V359.808z M248,327.808h-16v-16h16V327.808z M280,327.808h-16v-16h16V327.808z M240,71.808  c61.76,0,112,50.24,112,112s-50.24,112-112,112s-112-50.24-112-112C128,122.056,178.24,71.808,240,71.808z" data-original="#DA544A" class="" data-old_color="#f7ce3e"/><rect x="440" y="24" style="fill:#1A2930" width="24" height="16" data-original="#E07940" class="active-path" data-old_color="#1a2930"/><g>
	<path style="fill:#E5E8E8;" d="M219.312,232l-32.104,32.008c15.16,10.024,33.288,15.856,52.792,15.856s37.632-5.808,52.792-15.832   L260.688,232H219.312z" data-original="#E5E8E8" class=""/>
	<path style="fill:#E5E8E8;" d="M322.208,134.48C306.696,108.736,280,90.832,248,88.216v51.064l32.104,19.256L322.208,134.48z" data-original="#E5E8E8" class=""/>
	<path style="fill:#E5E8E8;" d="M272.984,221.488l32.408,32.408C324.176,236.36,336,211.472,336,183.808   c0-12.344-2.424-24.112-6.688-34.968L286.8,173.136L272.984,221.488z" data-original="#E5E8E8" class=""/>
	<path style="fill:#E5E8E8;" d="M207.016,221.488l-11.08-38.784l-47.656-27.232c-2.776,8.96-4.28,18.48-4.28,28.336   c0,27.656,11.824,52.552,30.608,70.08L207.016,221.488z" data-original="#E5E8E8" class=""/>
</g><polygon style="fill:#1A2930" points="222.032,216 257.968,216 270.624,171.608 240,153.184 209.376,171.632 " data-original="#E07940" class="active-path" data-old_color="#1a2930"/><path style="fill:#E5E8E8;" d="M195.88,160.952L232,139.28V88.216c-32,2.824-62.872,23.352-77.584,52.336l39.264,22.44  C194.28,162.2,194.992,161.488,195.88,160.952z" data-original="#E5E8E8" class=""/><g>
	<path style="fill:#1A2930" d="M472,8h-32c0-8-3.576-8-8-8H48c-4.424,0-8,0-8,8H8c-4.424,0-8,3.392-8,7.808v32   C0,52.232,3.576,56,8,56h32c0,8,3.576,8,8,8h8v207.808c0,2.328,1.008,4.528,2.776,6.056L72,289.288V344h16v-40.896l16,13.816V368   h16v-37.256l16,13.816V400h16v-41.624l16,13.816V424h16v-37.984l16,13.816V448h16v-34.344l16,13.816V480h16v-52.528l16-13.816V448   h16v-48.168l16-13.816V424h16v-51.8l16-13.816V400h16v-55.44l16-13.816V368h16v-51.072l16-13.816V344h16v-54.712l13.224-11.424   c1.768-1.52,2.776-3.728,2.776-6.056V64h8c4.424,0,8,0,8-8h32c4.424,0,8-3.768,8-8.192v-32C480,11.392,476.424,8,472,8z M40,40H16   V24h24V40z M424,48h-8h-40v16h32v204.144L240,413.24L72,268.144V64h32V48H64h-8V16h368V48z M464,40h-24V24h24V40z" data-original="#334C5B" class="" data-old_color="#334C5B"/>
	<path style="fill:#1A2930" d="M240,295.808c61.76,0,112-50.24,112-112s-50.24-112-112-112s-112,50.24-112,112   S178.24,295.808,240,295.808z M240,279.808c-19.496,0-37.632-5.784-52.792-15.808l32.104-32h41.376l32.104,32.008   C277.632,274.032,259.496,279.808,240,279.808z M336,183.808c0,27.656-11.824,52.552-30.608,70.08l-32.408-32.408l13.816-48.344   l42.512-24.296C333.576,159.696,336,171.464,336,183.808z M248,88.216c32,2.616,58.696,20.52,74.208,46.264l-42.104,24.056   L248,139.28V88.216z M270.624,171.608L257.968,216h-35.936l-12.656-44.392L240,153.232L270.624,171.608z M232,88.216v51.064   l-36.12,21.672c-0.888,0.536-1.6,1.248-2.2,2.04l-39.264-22.44C169.128,111.568,200,91.04,232,88.216z M148.28,155.472   l47.656,27.232l11.08,38.784l-32.408,32.408C155.824,236.36,144,211.472,144,183.808C144,173.952,145.504,164.432,148.28,155.472z" data-original="#334C5B" class="" data-old_color="#334C5B"/>
	<rect x="200" y="311.808" style="fill:#1A2930" width="16" height="16" data-original="#334C5B" class="" data-old_color="#334C5B"/>
	<rect x="232" y="311.808" style="fill:#1A2930" width="16" height="16" data-original="#334C5B" class="" data-old_color="#334C5B"/>
	<rect x="264" y="311.808" style="fill:#1A2930" width="16" height="16" data-original="#334C5B" class="" data-old_color="#334C5B"/>
	<rect x="232" y="343.808" style="fill:#1A2930" width="16" height="16" data-original="#334C5B" class="" data-old_color="#334C5B"/>
</g></g> </svg>
