<?xml version="1.0"?>
<svg xmlns="http://www.w3.org/2000/svg" xmlns:xlink="http://www.w3.org/1999/xlink" version="1.1" id="Layer_1" x="0px" y="0px" viewBox="0 0 480 480" style="enable-background:new 0 0 480 480;" xml:space="preserve" width="512px" height="512px" class=""><g><g>
	<path style="fill:#F7CE3E" d="M152,172h-16H40c-13.232,0-24,10.576-24,23.808v40C16,249.048,26.768,260,40,260h96h16   c13.232,0,24-10.952,24-24.192v-40C176,182.576,165.232,172,152,172z M160,236c0,4.416-3.584,8-8,8H40c-4.416,0-8-3.584-8-8v-40   c0-4.416,3.584-8,8-8h112c4.416,0,8,3.584,8,8V236z" data-original="#DA544A" class="active-path" data-old_color="#f7ce3e"/>
	<path style="fill:#F7CE3E" d="M183.792,260h57.4c5.056-40,27.576-72,59.192-88H183.792c5.08,8,8.208,14.768,8.208,23.808v40   C192,244.848,188.872,252,183.792,260z" data-original="#DA544A" class="active-path" data-old_color="#f7ce3e"/>
	<circle style="fill:#F7CE3E" cx="360" cy="275.808" r="40" data-original="#DA544A" class="active-path" data-old_color="#f7ce3e"/>
	<path style="fill:#F7CE3E" d="M240,276h-47.592c4.04,56,50.408,101.792,107.656,103.8C264.224,359.024,240,324,240,276z" data-original="#DA544A" class="active-path" data-old_color="#f7ce3e"/>
	<path style="fill:#F7CE3E" d="M360,171.808c-57.352,0-104,46.648-104,104c0,57.344,46.648,104,104,104s104-46.656,104-104   S417.352,171.808,360,171.808z M360,331.808c-30.88,0-56-25.12-56-56s25.12-56,56-56s56,25.12,56,56S390.88,331.808,360,331.808z" data-original="#DA544A" class="active-path" data-old_color="#f7ce3e"/>
	<path style="fill:#F7CE3E" d="M458.056,142.44c3.832-3.832,5.944-8.928,5.944-14.344c0-11.184-9.104-20.288-20.288-20.288   c-5.416,0-10.512,2.112-14.344,5.944L384.72,158.4c14.68,3.088,28.352,8.912,40.536,16.84L458.056,142.44z M440,123.808   c4.416,0,8,3.584,8,8s-3.584,8-8,8s-8-3.584-8-8S435.584,123.808,440,123.808z" data-original="#DA544A" class="active-path" data-old_color="#f7ce3e"/>
	<rect x="48" y="204" style="fill:#F7CE3E" width="96" height="24" data-original="#DA544A" class="active-path" data-old_color="#f7ce3e"/>
</g><g>
	<path style="fill:#1A2930" d="M160,196c0-4.416-3.584-8-8-8H40c-4.416,0-8,3.584-8,8v40c0,4.416,3.584,8,8,8h112   c4.416,0,8-3.584,8-8V196z M144,228H48v-24h96V228z" data-original="#334C5B" class="" data-old_color="#1a2930"/>
	<path style="fill:#1A2930" d="M438.168,184.96l31.208-31.208c6.848-6.848,10.624-15.968,10.624-25.656   c0-20.008-16.28-36.288-36.288-36.288c-9.696,0-18.808,3.776-25.656,10.632l-53.6,53.688C362.968,156.08,361.504,156,360,156H152   h-16H40c-22.056,0-40,17.76-40,39.808v40C0,257.864,17.944,276,40,276h96h16h24.408c4.16,64,59.72,120,127.592,120h56   c66.168,0,120-53.928,120-120.096C480,239.6,463.728,206.976,438.168,184.96z M176,235.808c0,13.24-10.768,24.192-24,24.192h-16H40   c-13.232,0-24-10.952-24-24.192v-40C16,182.576,26.768,172,40,172h96h16c13.232,0,24,10.576,24,23.808V235.808z M429.368,113.752   c3.832-3.832,8.928-5.944,14.344-5.944c11.184,0,20.288,9.104,20.288,20.288c0,5.416-2.112,10.512-5.944,14.344l-32.8,32.8   c-12.184-7.936-25.848-13.752-40.536-16.84L429.368,113.752z M183.792,172h116.592c-31.616,16-54.144,48-59.192,88h-57.4   c5.08-8,8.208-15.152,8.208-24.192v-40C192,186.768,188.872,180,183.792,172z M192.408,276H240c0,48,24.224,83.024,60.064,103.8   C242.816,377.792,196.44,332,192.408,276z M360,379.808c-57.352,0-104-46.656-104-104c0-57.352,46.648-104,104-104   s104,46.648,104,104S417.352,379.808,360,379.808z" data-original="#334C5B" class="" data-old_color="#1a2930"/>
	<path style="fill:#1A2930" d="M360,219.808c-30.88,0-56,25.12-56,56s25.12,56,56,56s56-25.12,56-56S390.88,219.808,360,219.808z    M360,315.808c-22.056,0-40-17.944-40-40s17.944-40,40-40s40,17.944,40,40S382.056,315.808,360,315.808z" data-original="#334C5B" class="" data-old_color="#1a2930"/>
	<circle style="fill:#1A2930" cx="440" cy="131.808" r="8" data-original="#334C5B" class="" data-old_color="#1a2930"/>
	<rect x="88" y="84" style="fill:#1A2930" width="16" height="48" data-original="#334C5B" class="" data-old_color="#1a2930"/>
	
		<rect x="121.367" y="115.788" transform="matrix(-0.7071 0.7071 -0.7071 -0.7071 333.3462 109.4995)" style="fill:#1A2930" width="45.256" height="16" data-original="#334C5B" class="" data-old_color="#1a2930"/>
	
		<rect x="40.01" y="101.194" transform="matrix(-0.7071 0.7071 -0.7071 -0.7071 169.5139 177.4282)" style="fill:#1A2930" width="16" height="45.256" data-original="#334C5B" class="" data-old_color="#1a2930"/>
</g></g> </svg>
